<?xml version="1.0" encoding="utf-8"?>
<!-- Generator: Adobe Illustrator 16.0.0, SVG Export Plug-In . SVG Version: 6.00 Build 0)  -->
<!DOCTYPE svg PUBLIC "-//W3C//DTD SVG 1.1//EN" "http://www.w3.org/Graphics/SVG/1.1/DTD/svg11.dtd">
<svg version="1.1" id="Layer_1" xmlns="http://www.w3.org/2000/svg" xmlns:xlink="http://www.w3.org/1999/xlink" x="0px" y="0px"
	 width="1325px" height="635px" viewBox="0 0 1325 635" enable-background="new 0 0 1325 635" xml:space="preserve">
<g>
	<path fill="#404040" d="M365.439,95.179c-5.09,0-7.548-1.546-7.548-5.315c0-3.746,3.109-3.966,5.994-5.52
		c2.229-0.894,2.898-2.659,2.898-5.534V23.068c0-4.43-0.894-5.315-6.434-5.315c-8.662,0-12.44,2.65-17.989,7.291
		c-5.113,4.429-7.547,7.749-10.212,7.749c-1.783,0-2.889-1.326-2.889-3.32c0-2.665,3.778-9.735,10.662-21.669
		c2.439-4.209,4.435-6.64,6.438-6.64c3.77,0,3.324,4.2,9.318,4.2h64.615c6.223,0,7.558-3.315,9.992-3.315
		c3.114,0,5.782-0.22,2.444,4.64c-7.988,11.949-12.208,20.35-12.208,22.995c0,1.783-1.333,3.338-3.557,3.338
		c-2.435,0,0.439-15.034-3.105-15.034l-16.65-0.445c-6.223-0.22-8.007,1.106-8.007,5.535v55.742c0,2.875,0.904,4.64,2.898,5.534
		c2.876,1.555,5.994,1.776,5.994,5.521c0,3.769-2.439,5.314-7.549,5.314h-25.105V95.179z M567.809,62.211l-35.074,10.844
		c2.875,9.075,8.877,13.714,17.544,13.714c4.209,0,8.434-1.104,11.767-3.091c4.209-2.644,6.888-4.64,8.873-4.64
		c1.574,0,2.894,1.105,2.894,2.87c0,1.77-1.33,3.989-4.229,6.416c-6.653,5.749-16.195,9.29-25.967,9.29
		c-20.205,0-34.415-13.06-34.415-30.524c0-8.4,3.325-15.484,9.762-21.239c6.223-5.511,14.441-8.62,22.429-8.62
		c10.212,0,17.98,3.315,24.203,10.615c3.988,4.86,5.764,9.954,5.764,11.949C571.368,61.111,570.488,61.339,567.809,62.211z
		 M528.521,56.915c0,2.65,0.665,5.746,1.994,9.955l17.1-5.531c1.994-0.655,3.118-1.774,3.118-2.879
		c0-6.194-5.553-13.269-12.661-13.269C532.511,45.192,528.521,49.832,528.521,56.915z M460.086,58.68V82.35
		c0,2.646,0.88,4.2,3.109,5.534c2.444,1.321,4.657,1.55,4.657,4.196c0,2.22-1.994,3.77-4.874,3.77h-23.991
		c-2.876,0-4.659-1.541-4.659-3.77c0-2.646,2.224-2.866,4.659-4.196c2.229-1.333,2.898-2.888,2.898-5.534V31.697
		c0-2.665-0.22-3.315-2.898-4.209c-2.655-0.88-4.431-1.1-4.431-3.32c0-1.339,1.785-2.646,5.114-4.42l14.871-7.744
		c1.344-0.445,2.224-0.885,3.329-0.885c2.004,0,2.444,0.885,2.444,3.099v30.079c5.333-4.64,10.432-7.075,15.995-7.075
		c8.873,0,14.874,5.755,18.2,17.03l3.558,12.168c2.435,7.979,1.996,20.578,1.785,23.444c-1.344,20.795-25.318,36.507-31.319,39.599
		c-2.876,1.32-7.557-1.545-1.996-3.989c15.985-7.07,17.55-35.838,16.215-47.113c-0.22-1.774-0.89-7.529-3.999-17.034
		c-2.655-8.629-4.879-12.595-10.212-12.595C463.635,48.74,460.086,52.256,460.086,58.68z M294.424,303.168
		c1.33-10.614,12.436-22.573,23.097-22.132c15.095,0.454,12.432,16.819,41.083,19.478c39.518,3.764,79.484,3.54,119.013-3.1
		c43.517-7.075,87.249-17.478,131.228-16.378c26.858,0.674,73.488,3.54,74.591,29.646c0.451,10.396-7.555,23.451-23.531,22.793
		c-30.186-0.897-27.981-14.158-89.037-13.728c-30.417,0-61.501-2.875-91.257,5.545c-6.668,1.977-13.321,9.064-13.321,15.92v31.631
		c0,7.062,1.774,17.916,11.767,17.916h31.98c7.768,0,16.195-2.445,21.528-7.746c6.214-5.973,15.994-4.879,17.979,3.092
		c3.779,14.158,6.453,28.975,10.001,42.693c2.656,11.273-5.112,14.815-10.001,6.854c-5.542-9.739-20.203-11.285-31.3-11.285h-40.627
		c-6.003,0-10.212,4.196-10.212,14.815v86.92c0,15.04,1.1,35.39,10.212,43.79c3.988,3.764,7.767,12.621,1.549,16.388
		c-23.527,14.365-43.754,31.398-68.388,46.448c-6.003,3.53-19.324-1.106-9.772-17.925c17.329-31.632,18.43-39.145,18.43-79.393
		v-197.3c0-7.304-6.434-12.164-19.548-10.61c-24.868,2.434-49.941,9.947-74.598,6.631
		C300.866,330.809,292.428,318.213,294.424,303.168z M1135.721,589.163c7.979,1.546,59.055,3.991,104.115-81.171l-35.079-80.3
		c-2.454-5.739-4.215-9.952-8.654-12.819c-5.788-3.314-10.439-4.215-10.439-10.846c0-5.094,3.997-7.51,12.218-7.51h42.618
		c7.109,0,10.442,2.867,10.442,7.285c0,7.082-11.987,8.861-11.987,14.171c0,0.899,0.451,3.079,2.006,6.415l19.085,43.357
		l18.427-42.918c0.882-2.2,1.546-3.775,1.546-5.085c0-7.737-11.77-8.849-11.77-15.704c0-4.421,4.212-7.512,11.77-7.512h31.757
		c3.558,0,7.34,3.754,7.34,7.961c0,5.523-3.109,5.523-7.115,7.951c-5.321,3.334-6.876,6.197-8.431,9.953
		c-15.638,29.434-31.913,60.635-48.807,93.57c-25.339,49.39-64.127,91.183-114.04,91.183c-19.963,0-56.318-10.451-56.318-36.989
		c0-12.242,11.387-20.099,22.176-20.099c8.11,0,14.254,7.044,10.918,11.698C1112.833,568.59,1118.603,586.075,1135.721,589.163z
		 M1076.651,410.004l26.651-15.929c2.434-1.546,4.437-2.221,6.434-2.221c3.324,0,4.427,2.661,4.427,8.194v21.24
		c13.552-18.589,25.321-27.862,40.194-27.862c10.197,0,15.976,2.651,15.976,7.306c0,3.316-3.755,11.717-8.428,26.314
		c-2.894,9.291-3.561,15.471-8.654,15.471c-2.454,0-3.781-2.191-6.442-6.188c-3.781-5.968-6.891-9.282-13.091-9.282
		c-12.437,0-19.33,8.84-19.33,26.313v28.975c0,5.958,1.106,9.498,5.339,12.379c4.439,3.325,9.104,4.197,9.104,10.191
		c0,5.064-3.333,8.183-9.104,8.183h-46.412c-6.215,0-9.775-3.54-9.775-8.4c0-6.206,5.104-7.079,9.775-10.403
		c4.439-2.882,5.994-6.64,5.994-12.837v-44.454c0-5.76-0.879-7.07-5.766-8.857c-5.115-1.985-8.673-3.092-8.673-7.513
		C1064.87,417.064,1069.104,414.425,1076.651,410.004z M1059.1,461.752c0,32.531-24.859,54.426-64.838,54.426
		c-44.182,0-69.925-23.674-69.925-60.148c0-16.604,5.994-31.641,17.54-43.59c12.436-12.821,27.305-18.795,46.166-18.795
		c17.1,0,34.875,6.404,47.751,17.707C1051.34,424.596,1059.1,441.639,1059.1,461.752z M980.291,408.889
		c-11.764,0-19.545,9.748-19.545,25.886c0,10.843,2.894,23.886,9.111,36.493c8.652,18.146,18.422,26.985,30.867,26.985
		c12.415,0,20.639-9.961,20.639-26.538c0-10.412-3.108-24.131-10.656-38.711C1002.934,417.74,990.498,408.889,980.291,408.889z
		 M845.292,471.931v-54.866h-12.661c-5.545,0-8.203-1.967-8.203-6.191c0-4.224,2.658-6.403,5.788-9.943l33.063-39.162
		c5.106-6.182,7.549-10.395,10.891-10.395c5.106,0,5.994,4.213,5.994,13.492v31.644h34.855c3.332,0,4.224,0.655,4.224,3.97
		c0,9.946-2.67,15.932-8.212,15.932h-30.416v59.727c0,11.488,1.534,16.583,10.646,16.583c7.548,0,16.211-9.298,22.86-9.298
		c4.222,0,7.106,2.873,7.106,7.08c0,10.842-17.092,25.658-43.282,25.658c-20.003,0-35.53-12.615-35.53-23.889
		C842.407,488.086,845.292,481.662,845.292,471.931z M807.768,416.203l-11.77,24.545c-1.555,3.539-3.551,5.084-6.218,5.084
		c-5.115,0-5.771-6.191-9.552-17.249c-3.775-12.164-12.436-19.019-22.193-19.019c-15.537,0-26.194,15.031-26.194,40.923
		c0,27.419,14.655,45.577,34.173,45.577c11.124,0,19.551-4.215,28.879-12.4c5.339-5.076,8.651-9.728,12.885-9.728
		c3.1,0,5.555,2.425,5.555,6.188c0,4.422-3.334,10.395-10.649,17.925c-11.124,11.929-26.651,17.913-45.314,17.913
		c-39.751,0-66.16-24.338-66.16-59.934c0-16.389,7.999-33.186,22.215-45.586c12.64-10.825,29.075-16.799,47.945-16.799
		c26.437,0,47.515,12.164,47.515,17.922C808.874,413.095,808.423,414.648,807.768,416.203z M669.436,514.848
		c-12.205,0-21.537-4.439-28.864-13.934c-15.321,9.945-30.417,15.04-46.63,15.04c-25.749,0-41.953-15.04-41.953-34.292
		c0-25.436,22.427-42.236,61.285-42.236c2.885,0,5.994,0,8.879,0.207c-4.668-17.68-10.212-24.535-25.092-24.535
		c-15.537,0-23.973,12.155-30.421,12.155c-3.104,0-5.318-2.434-5.318-6.2c0-10.168,19.529-27.408,48.396-27.408
		c25.756,0,38.866,12.828,48.185,42.457l11.986,38.283c3.997,13.043,8.437,19.234,15.33,19.234c3.764,0,5.094-2.651,5.973-2.651
		c1.357,0,3.343,3.091,3.343,7.961C694.523,508.444,685.217,514.848,669.436,514.848z M632.584,475.031l-3.779-13.056
		c-1.33-4.858-5.779-7.079-13.767-7.079c-15.324,0-24.656,8.634-24.656,20.811c0,11.488,8.662,19.664,21.997,19.664
		c13.102,0,21.089-5.73,21.089-14.141C633.469,479.234,633.019,477.016,632.584,475.031z M299.054,208.648
		c5.333,18.134,17.32,27.878,33.763,27.878c8.208,0,16.206-2.439,22.429-6.406c8.208-5.314,13.1-9.303,16.879-9.303
		c3.324,0,5.759,2.215,5.759,5.754c0,3.549-2.883,8.19-8.208,13.269c-12.886,11.5-31.086,18.584-49.515,18.584
		c-38.857,0-65.935-26.535-65.935-62.147c0-16.81,5.992-31.414,18.419-43.143c11.767-11.054,27.761-17.25,43.301-17.25
		c19.305,0,34.4,6.855,45.952,21.458c7.988,9.955,11.547,20.35,11.547,24.1c0,2.654-2.004,3.54-7.333,5.309L299.054,208.648z
		 M294.845,196.047l32.859-11.289c3.989-1.32,5.994-3.535,5.994-5.965c0-12.164-10.873-26.539-24.203-26.539
		c-10.643,0-18.648,9.061-18.648,23.445C290.836,181.215,292.391,187.638,294.845,196.047z M1244.912,208.648
		c5.336,18.134,17.1,27.878,33.757,27.878c8.212,0,15.997-2.439,22.418-6.406c8.233-5.314,13.104-9.303,16.876-9.303
		c3.127,0,5.563,2.215,5.563,5.754c0,3.549-2.651,8.19-7.997,13.269c-12.866,11.5-31.082,18.584-49.736,18.584
		c-38.627,0-65.944-26.535-65.944-62.147c0-16.81,6.209-31.414,18.646-43.143c11.772-11.054,27.542-17.25,43.087-17.25
		c19.524,0,34.627,6.855,46.167,21.458c7.997,9.955,11.33,20.35,11.33,24.1c0,2.654-2.006,3.54-7.109,5.309L1244.912,208.648z
		 M1240.696,196.047l32.852-11.289c3.782-1.32,5.788-3.535,5.788-5.965c0-12.164-10.882-26.539-24.209-26.539
		c-10.439,0-18.418,9.061-18.418,23.445C1236.688,181.215,1238.242,187.638,1240.696,196.047z M1079.066,98.938
		c0-6.194-0.451-7.74-5.339-9.734c-5.103-1.996-8.651-2.885-8.651-7.529c0-3.315,3.333-6.195,9.758-10.17l28.637-17.695
		c2.453-1.333,4.232-2.214,6.235-2.214c3.764,0,4.879,2.214,4.879,7.303v124.3c16.191-13.714,23.981-22.554,23.981-26.764
		c0-3.761-9.99-3.761-9.99-10.616c0-5.094,3.1-7.07,9.99-7.07h35.755c7.53,0,11.088,1.775,11.088,7.291
		c0,6.423-4.664,7.525-11.536,9.069c-7.343,1.996-11.988,6.635-18.431,13.495l24.403,49.767c5.348,10.605,8.232,17.91,14.891,21.45
		c3.342,1.985,5.348,2.875,5.348,8.399c0,4.2-2.669,7.081-7.117,7.081h-27.073c-4.896,0-6.012-1.775-8.651-7.3l-27.542-55.072
		l-15.546,14.375v17.263c0,5.966,1.555,9.5,5.779,12.39c4.439,3.314,8.896,4.2,8.896,10.175c0,5.07-3.549,8.179-9.112,8.179h-45.96
		c-5.779,0-9.104-3.109-9.104-8.179c0-5.985,4.654-6.861,9.104-10.175c4.203-2.89,5.336-6.424,5.336-12.39V98.938H1079.066z
		 M1003.122,243.16c-15.321,9.951-30.418,15.036-46.618,15.036c-25.76,0-41.973-15.036-41.973-34.294
		c0-25.438,22.422-42.248,61.506-42.248c2.66,0,5.779,0,8.879,0.22c-4.888-17.693-10.434-24.548-25.303-24.548
		c-15.545,0-23.99,12.16-30.209,12.16c-3.315,0-5.537-2.426-5.537-6.194c0-10.175,19.527-27.424,48.397-27.424
		c25.976,0,39.079,12.83,48.182,42.467l11.985,38.273c4.008,13.04,8.447,19.234,15.33,19.234c3.771,0,5.326-2.646,5.993-2.646
		c1.331,0,3.333,3.096,3.333,7.961c0,9.519-9.326,15.933-25.088,15.933C1019.779,257.09,1010.443,252.661,1003.122,243.16z
		 M991.574,204.228c-1.547-4.861-5.982-7.079-13.991-7.079c-15.318,0-24.637,8.625-24.637,20.789
		c0,11.499,8.661,19.678,21.987,19.678c13.092,0,21.313-5.745,21.313-14.154c0-1.994-0.439-4.2-1.111-6.194L991.574,204.228z
		 M879.004,182.989c-1.778,3.535-3.784,5.089-6.424,5.089c-4.888,0-5.787-6.194-9.346-17.24
		c-3.99-12.168-12.643-19.023-22.193-19.023c-15.545,0-26.193,15.034-26.193,40.923c0,27.418,14.441,45.559,33.975,45.559
		c11.08,0,19.533-4.209,28.861-12.39c5.555-5.089,8.663-9.729,12.875-9.729c3.118,0,5.788,2.424,5.788,6.185
		c0,4.42-3.558,10.395-10.667,17.928c-11.097,11.931-26.643,17.915-45.509,17.915c-39.754,0-66.16-24.339-66.16-59.933
		c0-16.378,7.997-33.188,22.194-45.576c12.66-10.835,29.309-16.81,47.963-16.81c26.428,0,47.751,12.17,47.751,17.923
		c0,1.542-0.675,3.087-1.36,4.642L879.004,182.989z M690.724,208.648c5.542,18.134,17.304,27.878,33.973,27.878
		c8.212,0,15.976-2.439,22.437-6.406c8.205-5.314,13.094-9.303,16.857-9.303c3.109,0,5.542,2.215,5.542,5.754
		c0,3.549-2.648,8.19-7.979,13.269c-12.866,11.5-31.303,18.584-49.741,18.584c-38.854,0-65.935-26.535-65.935-62.147
		c0-16.81,6.213-31.414,18.648-43.143c11.765-11.054,27.525-17.25,43.07-17.25c19.537,0,34.631,6.855,46.188,21.458
		c7.998,9.955,11.33,20.35,11.33,24.1c0,2.654-2.006,3.54-7.117,5.309L690.724,208.648z M686.724,196.047l32.646-11.289
		c3.996-1.32,5.981-3.535,5.981-5.965c0-12.164-10.86-26.539-24.196-26.539c-10.658,0-18.431,9.061-18.431,23.445
		C682.724,181.215,684.072,187.638,686.724,196.047z M516.872,229.657c-3.559-6.855-5.329-11.275-5.329-13.04
		c0-2.435,1.78-4.429,4.439-4.429c3.779,0,9.107,6.194,20.644,14.384c8.657,6.414,22.198,11.055,35.528,11.055
		c13.771,0,21.329-4.861,21.329-11.275c0-8.635-11.116-11.729-30.421-18.364c-31.306-10.614-47.52-18.795-47.52-40.267
		c0-17.46,15.77-31.844,39.522-31.844c13.989,0,24.208,4.429,30.209,4.429c5.759,0,9.764-7.968,14.202-7.968
		c2.444,0,3.998,1.994,5.783,5.081l15.091,24.998c1.554,2.879,3.109,5.076,3.109,7.07c0,3.329-1.776,5.309-4.664,5.309
		c-3.104,0-6.444-3.535-12.436-7.514c-12.656-8.63-23.314-14.816-37.973-14.816c-9.542,0-15.308,3.972-15.308,9.281
		c0,9.303,14.206,11.499,40.624,19.249c25.977,7.734,38.862,19.904,38.862,38.478c0,22.995-17.315,38.712-44.847,38.712
		c-15.774,0-26.636-3.989-32.419-3.989c-5.993,0-7.107,1.996-9.542,5.765c-2.898,3.769-4.218,6.194-6.653,6.194
		c-3.559,0-5.788-4.42-10.006-12.169L516.872,229.657z M424.729,208.648c5.544,18.134,17.311,27.878,33.745,27.878
		c8.208,0,16.215-2.439,22.429-6.406c8.208-5.314,13.1-9.303,16.879-9.303c3.324,0,5.764,2.215,5.764,5.754
		c0,3.549-2.87,8.19-8.212,13.269c-12.867,11.5-31.076,18.584-49.519,18.584c-38.853,0-65.935-26.535-65.935-62.147
		c0-16.81,6.001-31.414,18.434-43.143c11.767-11.054,27.76-17.25,43.306-17.25c19.319,0,34.415,6.855,46.182,21.458
		c7.767,9.955,11.321,20.35,11.321,24.1c0,2.654-1.994,3.54-7.332,5.309L424.729,208.648z M420.511,196.047l32.86-11.289
		c3.999-1.32,5.993-3.535,5.993-5.965c0-12.164-10.872-26.539-24.202-26.539c-10.644,0-18.65,9.061-18.65,23.445
		C416.504,181.215,418.076,187.638,420.511,196.047z M227.06,29.932c11.312,3.54,17.545-2.215,20.424-6.855
		c7.322-11.949,19.754-15.93,23.753-7.749c15.774,33.188,25.101,56.711,35.322,92.314c5.994,21.675-21.313,23-27.761,8.181
		c-20.874-47.773-61.964-76.386-106.15-72.186c-63.28,6.203-107.466,68.8-106.563,157.932
		c0.88,72.564,33.071,171.425,137.652,170.107c30.023-0.272,53.248-14.329,75.062-38.32c4.471-4.908,12.661,3.324,9.159,8.081
		c-29.475,40.023-64.283,62.958-108.647,63.425C66.094,406.184,2.153,311.057,1.479,214.623
		C0.81,127.917,65.865,20.414,176.436,21.303C193.536,21.522,210.851,24.842,227.06,29.932z M165.62,224.797
		c0,5.974,1.555,9.509,5.772,12.379c4.668,3.315,9.107,3.77,9.107,9.964c0,5.07-3.774,8.179-9.318,8.179h-45.96
		c-5.783,0-9.112-3.109-9.112-8.179c0-6.194,4.439-6.648,9.112-9.964c4.209-2.87,5.309-6.405,5.309-12.379v-101.31
		c0-6.185-0.43-7.74-5.309-9.735c-5.333-1.994-8.662-2.865-8.662-7.74c0-3.094,3.329-6.185,9.772-10.174l28.636-17.478
		c2.224-1.546,4.209-2.215,6.212-2.215c3.779,0,4.879,2.215,4.879,7.075v69.025c10.001-11.068,19.774-16.158,30.66-16.158
		c16.874,0,28.412,12.821,34.845,38.932l6.886,27.435c4.659,18.354,3.774,47.552,3.335,54.188
		c-2.885,47.333-48.406,83.166-59.951,90.021c-5.544,3.539-14.421-3.315-3.989-8.615c30.415-16.144,33.745-81.847,31.3-107.721
		c-0.431-4.209-1.994-17.699-7.988-39.373c-5.103-19.474-9.321-28.753-19.323-28.753c-9.542,0-16.206,8.175-16.206,22.774v39.823
		H165.62z"/>
</g>
</svg>
