<svg id="Capa_1" data-name="Capa 1" xmlns="http://www.w3.org/2000/svg" viewBox="0 0 90.79 55.49"><defs><style>.cls-1{fill:#fff;}</style></defs><title>Moto</title><path class="cls-1" d="M63.85,35.61c.32-.44.59-.78.83-1.14a.67.67,0,0,0,.07-.44c-.52-2.47-1-4.94-1.59-7.46H60.35a4.92,4.92,0,0,1-.77,0,1.24,1.24,0,0,1-1.12-1.19,1.18,1.18,0,0,1,1.1-1.2c1.6,0,3.2-.07,4.8,0,.76,0,1,.72,1.16,1.39l1,4.4a5.3,5.3,0,0,0,.16.54c1.31-1.45,3-1.82,4.74-2.27,1.18-.31,1.86.2,1.86,1.41,0,3.25,0,6.49,0,9.74a2.9,2.9,0,0,0,.65,1.87c1.55,2.1,3.11,4.19,4.48,6.41A23.7,23.7,0,0,1,80,51.75c.13.34.27.4.6.36a15.7,15.7,0,0,1,13.92,5.36,1.33,1.33,0,0,1-.19,2.26L91.51,62a34.31,34.31,0,0,1,1.32,3.69,10.57,10.57,0,0,1-20.39,5.48.7.7,0,0,0-.8-.55H42.73a.72.72,0,0,0-.83.59,10.54,10.54,0,0,1-20.63-3c0-.45-.14-.62-.61-.6-1.19,0-2.38,0-3.57,0s-1.66-.5-1.61-1.68a18.66,18.66,0,0,1,2.73-8.74c1-1.76,2.27-3.42,3.42-5.12.11-.16.24-.31.46-.6h-.78c-4.24,0-8.47-.08-12.71,0a4.08,4.08,0,0,1-4.3-4.3v-12q0-3.91,0-7.83a4.58,4.58,0,0,1,.82-2.74,3.55,3.55,0,0,1,3.08-1.58H32.73a3.82,3.82,0,0,1,3.82,3.62c.05.71,0,1.43,0,2.14,0,4.35,0,8.71,0,13.06,0,.61.17.76.76.76,4.16,0,8.32,0,12.47,0a4.69,4.69,0,0,1,5,4.28,4,4,0,0,1-1.39,3.78,20.22,20.22,0,0,0-3.73,3.89,5.42,5.42,0,0,0-1.15,3.24,4.65,4.65,0,0,0,2,3.45,9.88,9.88,0,0,0,5.26,2.12A16.9,16.9,0,0,0,65.8,61.74,9.53,9.53,0,0,0,69.91,58a7.58,7.58,0,0,0,.57-5.86,22.86,22.86,0,0,0-4.18-8.45,88.21,88.21,0,0,1-6-9.56.94.94,0,0,0-1-.56c-.95,0-1.9,0-2.85,0A1.28,1.28,0,0,1,55,32.39c0-.72.57-1.24,1.43-1.25,1.37,0,2.73,0,4.1,0a1.28,1.28,0,0,1,1.39,1,2.13,2.13,0,0,0,.14.38ZM91.94,58.42a2,2,0,0,0-.21-.24,13.4,13.4,0,0,0-20.34,2.27A8.47,8.47,0,0,1,68.73,63,19.92,19.92,0,0,1,55,65.86a12.14,12.14,0,0,1-6.34-2.75A6.93,6.93,0,0,1,46,57.37a8.48,8.48,0,0,1,1.8-4.5c.3-.42.64-.83,1-1.31-.2,0-.31-.05-.42-.05L26,51.4a1,1,0,0,0-.66.28,33.15,33.15,0,0,0-6,9,14.18,14.18,0,0,0-1.19,4.39H42.48V68h29.4c0-.25.07-.47.08-.68a9.86,9.86,0,0,1,2.24-5.94,10.62,10.62,0,0,1,15.16-1.55c.14.11.47.2.58.12C90.61,59.5,91.25,59,91.94,58.42ZM6.76,32.18a2.3,2.3,0,0,0-.07.42c0,4.85,0,9.69,0,14.54,0,1.19.5,1.64,1.69,1.64H32.55c1.27,0,1.67-.4,1.67-1.66V32.18ZM82.51,76A8.08,8.08,0,1,0,74.44,68,8.1,8.1,0,0,0,82.51,76Zm-48.3-46.1c0-1,0-1.94,0-2.88a1.17,1.17,0,0,0-.44-.86,3.12,3.12,0,0,0-1.38-.37c-7.93,0-15.86,0-23.79,0-.22,0-.44,0-.65,0a1.17,1.17,0,0,0-1.16,1c-.06,1,0,2,0,3.09ZM26.57,67.65H25.31c-1.76,0-1.76,0-1.43,1.74a8,8,0,0,0,7,6.58,7.94,7.94,0,0,0,8-4.12,7.82,7.82,0,0,0,1-4.16H37.11c-.62,3.73-2.46,5.57-5.44,5.47S26.93,71.09,26.57,67.65Zm10-18.75s0,0,.1,0c4.78,0,9.57,0,14.35,0a.7.7,0,0,0,.54-.26,6.73,6.73,0,0,0,.75-1.4,1.37,1.37,0,0,0-.67-1.82,5,5,0,0,0-2-.54c-4.07,0-8.14,0-12.22,0h-.83Zm29.8-12.32a2.58,2.58,0,0,0,.18,3.1c.82,1.14,1.68,2.25,2.46,3.41a25.46,25.46,0,0,1,4,8.49c.23,1,.32,2.1.48,3.16,0,0,.11,0,.15,0,1.26-.62,2.52-1.23,3.75-1.87a.62.62,0,0,0,.24-.54,25.77,25.77,0,0,0-1.39-3.44A44.48,44.48,0,0,0,70.38,41C69.08,39.52,67.72,38.09,66.35,36.58ZM29.22,67.65a2.65,2.65,0,0,0,2.48,3,2.7,2.7,0,0,0,2.8-2.61c0-.13-.21-.38-.33-.38C32.53,67.64,30.89,67.65,29.22,67.65ZM70.65,31.13a3.58,3.58,0,0,0-3.06,2.81.69.69,0,0,0,.16.52c.89.95,1.8,1.88,2.71,2.81,0,0,.12.06.24.1v-6A1.28,1.28,0,0,0,70.65,31.13Z" transform="translate(-4.3 -23.08)"/><path class="cls-1" d="M87.73,68.07a5.26,5.26,0,1,1-5.29-5.22A5.33,5.33,0,0,1,87.73,68.07Zm-5.28-2.66a2.7,2.7,0,1,0,2.72,2.71A2.68,2.68,0,0,0,82.45,65.41Z" transform="translate(-4.3 -23.08)"/></svg>